<svg t="1677996043816" class="icon" viewBox="0 0 1024 1024" version="1.1" xmlns="http://www.w3.org/2000/svg" p-id="7767" width="200" height="200"><path d="M418.07667 921.631248H51.340616a51.184376 51.184376 0 0 0 0 102.368752h435.067196a383.88282 383.88282 0 0 1-68.331142-102.368752zM384.03906 779.082761H195.936478a56.046892 56.046892 0 0 1-43.762641-21.497438 58.094267 58.094267 0 0 1-11.260563-48.369235A59.88572 59.88572 0 0 1 200.28715 665.709368h126.425409a87.525283 87.525283 0 0 0 86.757517-88.037126v-45.810017a87.269361 87.269361 0 0 0-43.506719-76.776564A191.173644 191.173644 0 0 1 332.854684 153.865609a187.590738 187.590738 0 0 1 136.918206-51.184376 190.149957 190.149957 0 0 1 127.96094 318.110896 371.59857 371.59857 0 0 1 134.614909-36.85275A290.215412 290.215412 0 0 0 473.86764 0.312481a279.978537 279.978537 0 0 0-210.367785 80.871314 289.191724 289.191724 0 0 0-88.293049 209.600019 293.030552 293.030552 0 0 0 138.709659 249.011989V563.340616H200.543072a158.415644 158.415644 0 0 0-125.657643 257.969255 153.553128 153.553128 0 0 0 121.306971 58.606111h204.737504a365.456444 365.456444 0 0 1-16.890844-100.833221z" p-id="7768"></path><path d="M765.618583 510.108865a255.92188 255.92188 0 1 0 255.92188 255.92188 255.92188 255.92188 0 0 0-255.92188-255.92188z m91.364111 315.551678h-93.667408A47.089626 47.089626 0 0 1 716.737504 778.826839a17.402688 17.402688 0 0 1 0-3.582906 15.099391 15.099391 0 0 1 0-3.582907V624.761867a47.089626 47.089626 0 0 1 93.92333 0v107.231268h46.833704a46.833704 46.833704 0 1 1 0 93.667408z" p-id="7769"></path></svg>