<?xml version="1.0" standalone="no"?><!DOCTYPE svg PUBLIC "-//W3C//DTD SVG 1.1//EN" "http://www.w3.org/Graphics/SVG/1.1/DTD/svg11.dtd"><svg t="1678279339649" class="icon" viewBox="0 0 1024 1024" version="1.1" xmlns="http://www.w3.org/2000/svg" p-id="1872" xmlns:xlink="http://www.w3.org/1999/xlink" width="200" height="200"><path d="M163.914722 847.857281l0-69.354578c0-6.698562 5.489014-12.227486 12.227486-12.227486l671.715585 0c6.698562 0 12.226462 5.528923 12.226462 12.227486l0 69.354578c0 6.698562-5.5279 12.227486-12.226462 12.227486L176.141184 860.084767C169.402713 860.084767 163.914722 854.600869 163.914722 847.857281L163.914722 847.857281zM225.091036 394.954237l138.710178 0c6.739495 0 12.227486 5.483898 12.227486 12.227486L376.028701 719.714785c0 6.748704-5.487991 12.226462-12.227486 12.226462L225.091036 731.941248c-6.698562 0-12.227486-5.478781-12.227486-12.226462L212.863551 407.181723C212.863551 400.479067 218.352565 394.954237 225.091036 394.954237L225.091036 394.954237zM442.643887 295.185976 581.354066 295.185976c6.698562 0 12.227486 5.523807 12.227486 12.227486L593.581552 719.714785c0 6.748704-5.528923 12.226462-12.227486 12.226462L442.643887 731.941248c-6.738471 0-12.227486-5.478781-12.227486-12.226462L430.416402 307.413462C430.416402 300.710806 435.906439 295.185976 442.643887 295.185976L442.643887 295.185976zM660.197762 163.91421l138.710178 0c6.698562 0 12.227486 5.523807 12.227486 12.227486L811.135426 719.714785c0 6.748704-5.528923 12.226462-12.227486 12.226462L660.197762 731.941248c-6.698562 0-12.227486-5.478781-12.227486-12.226462L647.970276 176.141696C647.970276 169.398108 653.4992 163.91421 660.197762 163.91421z" fill="#bfbfbf" p-id="1873"></path></svg>